<mxfile host="65bd71144e">
    <diagram id="-vx4CNJz0CDndSLK7DA5" name="Page-1">
        <mxGraphModel dx="1298" dy="914" grid="0" gridSize="10" guides="1" tooltips="1" connect="1" arrows="1" fold="1" page="1" pageScale="1" pageWidth="827" pageHeight="1169" background="#FFFFFF" math="0" shadow="0">
            <root>
                <mxCell id="0"/>
                <mxCell id="1" parent="0"/>
                <mxCell id="2" value="Data acquisition process (generic)" style="text;html=1;align=center;verticalAlign=middle;whiteSpace=wrap;rounded=0;fontColor=#000000;fontSize=24;" parent="1" vertex="1">
                    <mxGeometry x="228" y="11" width="372" height="30" as="geometry"/>
                </mxCell>
                <mxCell id="10" value="" style="edgeStyle=none;html=1;fontColor=#000000;strokeColor=#1A1A1A;" parent="1" source="4" target="9" edge="1">
                    <mxGeometry relative="1" as="geometry"/>
                </mxCell>
                <mxCell id="4" value="&lt;font color=&quot;#000000&quot;&gt;Research and study the topic&lt;/font&gt;" style="rounded=0;whiteSpace=wrap;html=1;fillColor=none;strokeColor=#000000;" parent="1" vertex="1">
                    <mxGeometry x="165" y="59" width="120" height="60" as="geometry"/>
                </mxCell>
                <mxCell id="12" value="" style="edgeStyle=none;html=1;strokeColor=#1A1A1A;fontColor=#000000;" parent="1" source="9" target="11" edge="1">
                    <mxGeometry relative="1" as="geometry"/>
                </mxCell>
                <mxCell id="9" value="&lt;font color=&quot;#000000&quot;&gt;Select potential variables and data sources&lt;/font&gt;" style="rounded=0;whiteSpace=wrap;html=1;fillColor=none;strokeColor=#000000;" parent="1" vertex="1">
                    <mxGeometry x="315.5" y="58" width="130.5" height="60" as="geometry"/>
                </mxCell>
                <mxCell id="14" value="&lt;font style=&quot;font-size: 12px;&quot;&gt;Data is sufficient&lt;/font&gt;" style="edgeStyle=none;html=1;strokeColor=#1A1A1A;fontSize=12;fontColor=#000000;labelBackgroundColor=#FFFFFF;" parent="1" source="11" target="13" edge="1">
                    <mxGeometry relative="1" as="geometry"/>
                </mxCell>
                <mxCell id="11" value="&lt;font color=&quot;#000000&quot;&gt;Source data for a specific data source&lt;/font&gt;" style="rounded=0;whiteSpace=wrap;html=1;fillColor=none;strokeColor=#000000;" parent="1" vertex="1">
                    <mxGeometry x="475.5" y="58" width="140" height="62" as="geometry"/>
                </mxCell>
                <mxCell id="138" value="No" style="edgeStyle=none;html=1;labelBackgroundColor=#FFFFFF;fontSize=12;fontColor=#000000;strokeColor=#000000;entryX=1;entryY=1;entryDx=0;entryDy=0;" parent="1" source="13" target="4" edge="1">
                    <mxGeometry relative="1" as="geometry"/>
                </mxCell>
                <mxCell id="140" value="Yes" style="edgeStyle=none;html=1;labelBackgroundColor=#FFFFFF;strokeColor=#000000;fontSize=12;fontColor=#000000;" parent="1" source="13" target="139" edge="1">
                    <mxGeometry relative="1" as="geometry"/>
                </mxCell>
                <mxCell id="13" value="&lt;font color=&quot;#000000&quot;&gt;Do we have enough data to perform analysis to explain our topic?&lt;/font&gt;" style="rounded=0;whiteSpace=wrap;html=1;fillColor=none;strokeColor=#000000;" parent="1" vertex="1">
                    <mxGeometry x="477.5" y="162" width="136" height="60" as="geometry"/>
                </mxCell>
                <mxCell id="142" value="Use key data sources&lt;br&gt;explaining our variables" style="edgeStyle=none;html=1;labelBackgroundColor=#FFFFFF;strokeColor=#000000;fontSize=12;fontColor=#000000;" parent="1" source="139" target="141" edge="1">
                    <mxGeometry relative="1" as="geometry"/>
                </mxCell>
                <mxCell id="139" value="&lt;font color=&quot;#000000&quot;&gt;Conclude data acquisition (current&lt;br&gt;cycle iteration )&lt;/font&gt;" style="rounded=0;whiteSpace=wrap;html=1;fillColor=none;strokeColor=#000000;" parent="1" vertex="1">
                    <mxGeometry x="479.5" y="264" width="136" height="60" as="geometry"/>
                </mxCell>
                <mxCell id="143" value="A need for more data&lt;br&gt;or new information about&lt;br&gt;the topic arises" style="edgeStyle=none;html=1;labelBackgroundColor=#FFFFFF;strokeColor=#000000;fontSize=12;fontColor=#000000;" parent="1" source="141" target="4" edge="1">
                    <mxGeometry x="0.0069" relative="1" as="geometry">
                        <mxPoint as="offset"/>
                    </mxGeometry>
                </mxCell>
                <mxCell id="141" value="&lt;font color=&quot;#000000&quot;&gt;Analysis&lt;/font&gt;" style="rounded=0;whiteSpace=wrap;html=1;fillColor=none;strokeColor=#000000;" parent="1" vertex="1">
                    <mxGeometry x="157" y="264" width="136" height="60" as="geometry"/>
                </mxCell>
                <mxCell id="144" value="Data is&lt;br&gt;insufficient" style="edgeStyle=none;html=1;labelBackgroundColor=#FFFFFF;strokeColor=#000000;fontSize=12;fontColor=#000000;" parent="1" source="11" target="11" edge="1">
                    <mxGeometry y="33" relative="1" as="geometry">
                        <Array as="points">
                            <mxPoint x="636" y="82"/>
                        </Array>
                        <mxPoint as="offset"/>
                    </mxGeometry>
                </mxCell>
                <mxCell id="145" value="" style="sketch=0;html=1;aspect=fixed;strokeColor=none;shadow=0;align=center;verticalAlign=top;fillColor=#3B8DF1;shape=mxgraph.gcp2.arrow_cycle" vertex="1" parent="1">
                    <mxGeometry x="350.75" y="168" width="60" height="57" as="geometry"/>
                </mxCell>
            </root>
        </mxGraphModel>
    </diagram>
</mxfile>